<?xml version="1.0" standalone="no"?>
<!DOCTYPE svg PUBLIC "-//W3C//DTD SVG 20010904//EN"
 "http://www.w3.org/TR/2001/REC-SVG-20010904/DTD/svg10.dtd">
<svg version="1.0" xmlns="http://www.w3.org/2000/svg"
 width="530.000000pt" height="530.000000pt" viewBox="0 0 530.000000 530.000000"
 preserveAspectRatio="xMidYMid meet">
<metadata>
Created by potrace 1.14, written by Peter Selinger 2001-2017
</metadata>
<g transform="translate(0.000000,530.000000) scale(0.100000,-0.100000)"
fill="#000000" stroke="none">
<path d="M0 2650 l0 -2650 2650 0 2650 0 0 2650 0 2650 -2650 0 -2650 0 0
-2650z m3200 2025 c192 -31 437 -118 613 -217 537 -304 927 -861 1038 -1483
21 -113 24 -162 23 -380 0 -254 -6 -328 -45 -495 -21 -95 -100 -340 -109 -340
-3 0 -45 76 -94 168 -49 92 -120 223 -157 292 l-69 125 11 120 c42 494 -158
1024 -515 1362 -142 134 -238 195 -515 327 -23 10 -90 122 -288 474 -41 73
-46 71 107 47z m-385 -240 c136 -235 166 -289 257 -450 25 -44 63 -109 83
-145 51 -87 109 -189 160 -280 23 -41 60 -106 82 -145 22 -38 75 -133 118
-210 101 -181 140 -249 205 -365 29 -52 63 -113 75 -135 26 -48 103 -184 158
-280 41 -72 66 -117 204 -365 45 -80 100 -179 123 -220 24 -41 75 -133 115
-205 86 -155 109 -196 190 -340 34 -60 75 -132 90 -160 103 -186 132 -238 165
-300 20 -39 55 -103 78 -142 22 -39 38 -74 34 -77 -3 -3 -117 -6 -253 -6
l-247 0 -103 188 c-407 743 -986 1788 -1282 2317 -77 138 -178 318 -224 400
-121 219 -167 295 -177 292 -5 -2 -95 -156 -201 -343 -105 -186 -232 -411
-282 -499 -50 -88 -148 -261 -218 -385 -224 -397 -354 -626 -580 -1025 -234
-411 -255 -449 -255 -462 0 -4 420 -5 932 -2 920 5 934 6 1033 28 184 41 386
116 512 190 l51 30 33 -57 c18 -31 69 -124 115 -205 l83 -148 -32 -20 c-76
-48 -301 -151 -401 -184 -115 -38 -293 -76 -441 -96 -64 -8 -462 -13 -1368
-16 l-1279 -4 8 23 c4 12 113 210 242 438 129 228 274 485 322 570 48 85 207
366 354 625 147 259 298 524 336 590 191 338 665 1171 852 1500 176 308 188
328 193 323 1 -1 65 -111 140 -243z m-558 221 c-3 -8 -62 -110 -131 -228 -69
-117 -127 -217 -129 -222 -4 -13 -16 -13 -554 -15 l-503 -1 0 -915 0 -915 -26
-41 c-26 -42 -288 -499 -384 -671 -30 -53 -58 -94 -62 -92 -9 6 -11 3037 -2
3083 l7 31 894 0 c766 0 894 -2 890 -14z m836 -2264 c24 -42 70 -124 102 -182
32 -58 69 -124 82 -147 12 -23 23 -44 23 -47 0 -3 -283 -6 -630 -6 -346 0
-630 3 -630 6 0 10 242 434 255 447 8 9 108 11 382 9 l371 -2 45 -78z"/>
</g>
</svg>
